<svg id="visual" viewBox="0 0 1920 200" width="1920" height="200" xmlns="http://www.w3.org/2000/svg" xmlns:xlink="http://www.w3.org/1999/xlink" version="1.1"><path d="M0 141L137 80L274 104L411 155L549 103L686 180L823 119L960 100L1097 171L1234 132L1371 73L1509 179L1646 147L1783 130L1920 172L1920 0L1783 0L1646 0L1509 0L1371 0L1234 0L1097 0L960 0L823 0L686 0L549 0L411 0L274 0L137 0L0 0Z" fill="#39f33c"></path><path d="M0 87L137 101L274 162L411 125L549 116L686 143L823 166L960 145L1097 156L1234 77L1371 139L1509 151L1646 76L1783 167L1920 93L1920 0L1783 0L1646 0L1509 0L1371 0L1234 0L1097 0L960 0L823 0L686 0L549 0L411 0L274 0L137 0L0 0Z" fill="#2bcf3b"></path><path d="M0 80L137 84L274 121L411 97L549 102L686 60L823 85L960 124L1097 127L1234 72L1371 54L1509 91L1646 101L1783 94L1920 73L1920 0L1783 0L1646 0L1509 0L1371 0L1234 0L1097 0L960 0L823 0L686 0L549 0L411 0L274 0L137 0L0 0Z" fill="#22ac37"></path><path d="M0 85L137 95L274 59L411 43L549 67L686 113L823 70L960 116L1097 69L1234 115L1371 67L1509 115L1646 91L1783 58L1920 113L1920 0L1783 0L1646 0L1509 0L1371 0L1234 0L1097 0L960 0L823 0L686 0L549 0L411 0L274 0L137 0L0 0Z" fill="#1c8a31"></path><path d="M0 56L137 48L274 37L411 25L549 37L686 38L823 62L960 56L1097 51L1234 77L1371 56L1509 78L1646 52L1783 77L1920 23L1920 0L1783 0L1646 0L1509 0L1371 0L1234 0L1097 0L960 0L823 0L686 0L549 0L411 0L274 0L137 0L0 0Z" fill="#196929"></path><path d="M0 62L137 36L274 17L411 59L549 24L686 46L823 51L960 62L1097 50L1234 22L1371 57L1509 22L1646 15L1783 15L1920 40L1920 0L1783 0L1646 0L1509 0L1371 0L1234 0L1097 0L960 0L823 0L686 0L549 0L411 0L274 0L137 0L0 0Z" fill="#164a21"></path><path d="M0 18L137 31L274 36L411 15L549 5L686 4L823 22L960 44L1097 18L1234 42L1371 42L1509 21L1646 35L1783 44L1920 22L1920 0L1783 0L1646 0L1509 0L1371 0L1234 0L1097 0L960 0L823 0L686 0L549 0L411 0L274 0L137 0L0 0Z" fill="#122d17"></path></svg>